<svg version="1.1" id="Layer_1" xmlns="http://www.w3.org/2000/svg" xmlns:xlink="http://www.w3.org/1999/xlink" x="0px" y="0px"
	 width="100%" viewBox="0 0 1024 1024" enable-background="new 0 0 1024 1024" xml:space="preserve">
<path fill="#000000" opacity="1.000000" stroke="none" 
	d="
M435.891968,462.071350 
	C427.700928,465.014893 419.877747,467.828156 411.225891,470.939392 
	C413.979828,472.169800 414.371063,473.854767 413.845612,476.083862 
	C412.586761,481.424377 411.419128,486.793243 410.457031,492.193878 
	C409.966736,494.946350 408.574768,496.031952 405.896729,496.541473 
	C395.270538,498.563110 384.683350,500.781372 374.339172,504.025513 
	C365.525299,506.789703 357.148621,510.346924 350.138123,516.581421 
	C349.556244,517.098877 348.730804,517.342407 347.759399,517.848206 
	C345.457245,514.460266 347.421600,511.210358 347.786072,508.171509 
	C350.546509,485.156158 358.694122,464.903351 378.603333,451.187744 
	C388.811920,444.154999 400.158264,439.217438 411.702026,434.880524 
	C439.909729,424.283081 468.252777,414.039948 495.738556,401.623383 
	C508.535980,395.842133 520.889648,389.334045 531.348694,379.742188 
	C531.962280,379.179535 532.637634,378.668915 533.885132,379.051117 
	C534.396301,383.363861 532.601135,387.324066 531.357544,391.350525 
	C528.499939,400.602966 524.616882,409.383911 519.814819,417.834045 
	C510.993134,433.357452 497.172760,441.574860 480.577087,446.488312 
	C465.575562,450.929749 450.816925,456.171936 435.891968,462.071350 
z"/>
<path fill="#000000" opacity="1.000000" stroke="none" 
	d="
M376.191742,561.180542 
	C383.097412,544.831482 384.528046,528.351135 380.432556,511.487457 
	C379.644501,508.242523 380.622650,506.894226 383.547241,506.057434 
	C386.552155,505.197540 387.507996,507.040558 388.047607,509.279022 
	C395.374481,539.671326 386.849579,577.677124 353.384705,595.843384 
	C337.334412,604.556213 320.563141,603.161377 304.147156,596.731323 
	C283.492706,588.641113 273.453003,571.804382 269.415405,551.179565 
	C264.371948,525.416443 269.852997,501.973480 287.285065,481.776276 
	C296.684540,470.885803 309.103088,466.428680 322.874969,464.730988 
	C331.896637,463.618927 340.822174,463.838776 349.483124,466.916260 
	C354.697449,468.769012 354.973846,469.614044 352.556976,474.417633 
	C351.883728,475.755676 351.020111,477.052429 350.641754,478.474030 
	C349.518280,482.695557 347.062958,485.195801 342.749512,486.470673 
	C339.049774,487.564087 336.276276,490.437408 333.576660,493.198914 
	C314.313507,512.903503 311.991180,553.248779 328.911072,574.651367 
	C340.314697,589.076172 354.654541,589.460938 366.952271,575.780029 
	C370.789551,571.511169 373.706665,566.723267 376.191742,561.180542 
M306.641937,592.346924 
	C311.580170,593.377319 315.605164,590.933289 319.801544,589.122070 
	C314.961792,589.115906 310.770111,591.911194 305.577759,591.479309 
	C304.606567,590.127197 303.632019,588.777405 302.664795,587.422485 
	C299.448608,582.917114 299.642914,582.511597 304.597076,580.361023 
	C307.094666,579.276917 310.199982,579.058105 312.335175,575.919250 
	C307.942810,576.527954 304.762146,578.396118 301.418945,579.775146 
	C298.627747,580.926392 296.577454,580.488647 295.344055,577.535645 
	C294.702637,575.999939 294.045593,574.461609 293.261108,572.996460 
	C291.530975,569.765381 292.448059,567.812439 295.802673,566.399231 
	C299.271851,564.937683 302.555450,563.035645 305.920197,561.326294 
	C305.711090,560.924927 305.502014,560.523560 305.292908,560.122253 
	C301.848541,561.656738 298.324127,563.037170 294.984039,564.772339 
	C292.079620,566.281189 290.813446,565.311157 289.875824,562.488708 
	C286.666229,552.827087 287.106506,551.786621 296.228058,547.110962 
	C298.727539,545.829712 301.941803,545.456970 303.812164,541.915161 
	C297.351624,542.079651 293.470978,547.148254 287.933136,548.247742 
	C285.943848,544.792053 287.148804,541.205078 286.658264,537.843933 
	C285.951080,532.998413 288.216888,530.527466 292.592590,528.969666 
	C296.410065,527.610657 300.450500,526.593201 304.830139,523.664062 
	C298.014771,523.174255 293.518036,527.672974 287.950073,527.848328 
	C286.927429,524.152161 288.552643,521.008911 288.871979,517.749084 
	C289.389832,512.462708 292.202332,509.424866 297.599091,508.474762 
	C301.614929,507.767792 305.514832,506.402405 309.466370,505.330261 
	C309.389465,504.993744 309.312561,504.657227 309.235626,504.320740 
	C303.754120,505.578705 298.272614,506.836670 292.333984,508.199524 
	C292.139862,502.521637 294.539886,498.323975 297.156830,494.749756 
	C301.943512,488.212006 310.461731,491.315277 316.933807,488.344574 
	C311.560913,487.182190 306.469482,490.144806 301.167450,489.165344 
	C306.362488,471.968292 320.583557,473.854156 333.542572,472.989288 
	C327.212280,471.236816 320.935791,473.423462 314.743011,473.382416 
	C314.760071,470.700256 317.425507,471.047821 317.564209,468.439850 
	C312.325623,472.673676 307.547882,476.975739 300.424835,475.648407 
	C301.800323,477.132599 303.973816,476.038147 305.064514,478.504456 
	C302.481537,482.298737 300.123810,486.889984 296.079407,489.681274 
	C293.831116,491.232941 291.531403,487.584076 288.970001,487.009277 
	C288.794769,486.970001 288.552185,487.230865 288.127502,487.474701 
	C289.735107,488.587341 291.206116,489.650360 292.723450,490.642487 
	C294.123505,491.557922 295.143127,492.817596 294.257080,494.381256 
	C292.401489,497.656006 291.585266,501.507721 288.940277,504.477631 
	C285.383514,503.429779 283.751129,499.411743 279.603821,498.730988 
	C281.598206,503.345245 287.970551,504.079285 287.859283,508.817261 
	C287.759247,513.077026 286.314911,517.475891 284.126892,521.891541 
	C280.504730,519.988098 278.116516,516.694092 273.988434,515.551880 
	C276.000977,521.067322 283.054535,522.185913 283.923859,527.194946 
	C284.758942,532.006470 284.602631,537.343445 283.135101,542.336182 
	C279.157196,542.134033 277.596039,538.225098 273.652618,538.156616 
	C283.022736,543.208557 286.129700,551.211670 285.585510,561.228394 
	C281.606232,561.013977 279.215332,557.088501 273.705505,556.933533 
	C281.811279,562.655090 291.517883,565.556763 290.914154,576.719971 
	C288.654755,577.370361 286.947876,575.165039 284.270020,575.672241 
	C290.058563,578.867981 296.962921,580.214600 298.593201,587.484802 
	C296.797546,589.091187 295.270782,586.839294 293.269043,588.090637 
	C297.878998,589.221436 301.628571,591.525696 306.641937,592.346924 
z"/>
<path fill="#000000" opacity="1.000000" stroke="none" 
	d="
M445.812866,417.000366 
	C424.179382,424.859283 402.538147,431.697357 382.626434,442.730347 
	C373.965302,447.529480 366.074402,453.338440 360.458130,461.741974 
	C359.386139,463.345947 358.217804,464.738129 355.981232,463.774261 
	C347.888672,460.286682 339.379120,459.095856 330.638489,459.125671 
	C330.205475,459.127136 329.771057,458.733368 328.841888,458.284119 
	C330.269592,451.826935 333.592224,446.395844 337.811127,441.425385 
	C346.188110,431.556091 356.952148,425.059662 368.440735,419.474945 
	C393.446686,407.319214 419.013184,396.278870 443.126099,382.337036 
	C452.782288,376.753998 462.470001,371.180206 470.794952,363.609039 
	C471.512054,362.956909 472.236084,362.189270 473.529968,362.409821 
	C474.841980,363.732117 474.392914,365.445129 474.089172,366.979126 
	C470.731171,383.938568 463.953766,399.318237 452.851166,412.694397 
	C451.060028,414.852325 448.724091,415.994385 445.812866,417.000366 
z"/>
<path fill="#000000" opacity="1.000000" stroke="none" 
	d="
M417.390869,498.917480 
	C419.742249,485.190277 418.206848,488.018219 429.721802,487.750305 
	C437.383240,487.572021 445.054291,487.613739 452.717438,487.753418 
	C463.822083,487.955841 468.474518,493.253082 467.431915,504.236237 
	C466.469177,514.378235 463.461639,518.607056 452.971344,524.313477 
	C454.963165,530.436157 459.483398,535.340515 461.893188,541.266296 
	C454.142120,545.389160 446.015808,543.138794 442.196625,535.986145 
	C441.019684,533.782043 439.585388,531.676331 438.709442,529.359009 
	C437.145233,525.220947 434.091400,524.741028 430.266022,525.021362 
	C426.109070,525.326111 426.523865,528.572876 425.837128,531.168457 
	C425.582520,532.130798 425.440063,533.123108 425.254852,534.103333 
	C423.564819,543.048889 421.176605,544.581665 412.016235,542.815918 
	C409.744751,542.378113 408.941193,541.419556 409.426270,539.045532 
	C411.024139,531.225281 412.449005,523.369934 413.968323,515.533447 
	C414.576111,512.398560 416.845459,511.867676 419.601013,511.897247 
	C426.932709,511.975922 434.265472,511.965057 441.597809,511.957184 
	C443.261414,511.955414 444.944458,511.957428 446.584473,511.721130 
	C450.438446,511.165771 451.808075,508.472534 451.855164,504.964233 
	C451.904388,501.292267 449.042358,500.555817 446.361389,500.535278 
	C438.704071,500.476501 431.044586,500.803802 423.385010,500.871948 
	C421.316071,500.890320 418.969513,501.553162 417.390869,498.917480 
z"/>
<path fill="#000000" opacity="1.000000" stroke="none" 
	d="
M637.960083,543.142334 
	C632.656738,542.997437 627.825745,543.486267 623.039917,542.421509 
	C615.587036,540.763245 611.880615,535.690735 613.143372,528.253601 
	C614.227539,521.867798 615.291931,515.453247 616.895996,509.187317 
	C619.166382,500.318634 625.198364,495.824585 634.314636,495.699707 
	C640.974121,495.608490 647.638794,495.565552 654.295898,495.723267 
	C662.670044,495.921631 667.141235,501.406067 665.704102,509.576569 
	C664.638977,515.632263 663.522827,521.682556 662.253967,527.698242 
	C660.014160,538.317505 654.794861,542.666504 643.943848,543.132141 
	C642.115662,543.210632 640.281067,543.142700 637.960083,543.142334 
M630.470276,530.922180 
	C634.273071,531.132324 638.075317,531.492737 641.878845,531.505920 
	C645.034363,531.516846 647.848511,530.498779 648.931641,527.090027 
	C650.492615,522.177673 651.359985,517.118286 651.758118,511.986969 
	C651.929321,509.779694 651.134277,507.770935 648.771240,507.505615 
	C643.664185,506.932220 638.396667,506.280151 633.430359,507.708099 
	C627.449402,509.427704 624.888977,526.448975 630.470276,530.922180 
z"/>
<path fill="#000000" opacity="1.000000" stroke="none" 
	d="
M519.617432,542.619507 
	C513.294434,542.561890 513.259094,542.447754 514.319336,536.791504 
	C516.489990,525.210938 518.516113,513.602966 520.745056,502.033844 
	C521.208557,499.628082 520.749390,496.012543 524.453796,495.931519 
	C528.497009,495.843109 533.175354,494.015594 536.007568,499.163422 
	C540.004211,506.427765 544.268982,513.544617 548.818420,521.415405 
	C551.586670,516.056946 551.229553,510.816895 552.552979,506.011047 
	C552.640137,505.694366 552.621643,505.349945 552.669617,505.020966 
	C554.155884,494.841492 556.281494,493.542603 566.985107,496.776093 
	C565.661926,504.831848 564.348999,512.975342 562.979309,521.109314 
	C562.125000,526.182495 561.259338,531.256104 560.250061,536.299744 
	C559.791870,538.589355 560.344727,542.241699 557.107178,542.247620 
	C552.977966,542.255188 547.929077,544.532776 544.963928,539.234070 
	C541.715515,533.429199 538.420044,527.650330 535.092529,521.890442 
	C534.215820,520.372986 533.741882,518.441345 531.252441,517.776306 
	C528.903931,523.679504 528.402344,529.958923 527.504761,536.070007 
	C526.805115,540.833252 525.179199,543.505554 519.617432,542.619507 
z"/>
<path fill="#000000" opacity="1.000000" stroke="none" 
	d="
M506.488495,513.676025 
	C509.994843,513.364075 510.829773,515.070496 510.198517,517.638489 
	C509.512512,520.429321 510.429932,524.423767 505.465485,524.349976 
	C499.142059,524.255981 492.816223,524.302063 486.491608,524.331726 
	C485.195282,524.337769 483.704926,523.976196 482.723206,525.120361 
	C481.723419,526.285522 481.168701,527.763855 481.591400,529.301025 
	C482.031036,530.899902 483.519592,530.985046 484.856995,530.995972 
	C491.347626,531.049072 497.840363,530.978699 504.328583,531.122375 
	C506.324097,531.166504 509.603973,530.814087 508.891541,534.006470 
	C508.195709,537.124390 510.040527,542.477478 504.564301,542.762085 
	C492.286285,543.400513 479.982819,543.088867 467.703827,542.302429 
	C467.416504,542.283997 467.148224,541.967957 466.448730,541.520691 
	C467.183197,532.985962 469.477173,524.491577 470.908752,515.865295 
	C471.750916,510.790771 472.923065,505.770569 473.743439,500.693115 
	C474.309265,497.191101 475.819641,495.548859 479.662201,495.631805 
	C489.810455,495.850861 499.967102,495.653198 510.119202,495.749939 
	C512.042419,495.768250 515.424438,495.021637 514.719055,498.398560 
	C514.047607,501.613007 515.897278,506.962189 509.874786,507.208801 
	C504.058838,507.446930 498.225952,507.278839 492.400513,507.276642 
	C484.845245,507.273804 484.809692,507.262512 483.581635,514.636780 
	C483.285431,516.415466 483.309845,518.247559 483.187195,520.049011 
	C483.740356,520.098633 484.251282,520.206055 484.275879,520.137878 
	C487.047180,512.461487 493.468964,513.487976 499.558655,513.671814 
	C501.720367,513.737122 503.885925,513.675903 506.488495,513.676025 
z"/>
<path fill="#000000" opacity="1.000000" stroke="none" 
	d="
M695.982178,495.705536 
	C699.308533,495.718658 702.145569,495.610229 704.967712,495.768280 
	C712.645874,496.198212 716.824097,500.934448 716.211487,508.617615 
	C715.541565,517.019043 712.082214,523.641235 703.421753,526.643127 
	C705.291748,532.224365 709.432861,536.237061 710.737793,541.550659 
	C702.021912,544.880676 697.353760,543.376953 693.218933,536.061951 
	C692.072876,534.034302 690.868408,532.024170 689.923889,529.902161 
	C688.706665,527.167297 686.443726,527.239136 684.052185,527.276489 
	C681.469360,527.316772 681.338440,529.287354 680.932007,531.050964 
	C680.671143,532.182800 680.460754,533.328186 680.275818,534.475281 
	C678.851379,543.307312 675.283569,545.150513 665.983459,541.344299 
	C667.368347,534.005920 668.727600,526.533020 670.209167,519.084473 
	C670.810730,516.060181 673.344788,516.014954 675.716492,516.006531 
	C681.876404,515.984741 688.036743,516.059326 694.196289,516.012451 
	C695.847229,515.999878 697.583069,515.956482 699.124817,515.452637 
	C701.358459,514.722717 702.798035,512.968933 702.486450,510.513245 
	C702.142090,507.800415 699.997986,507.271240 697.652832,507.266479 
	C691.159851,507.253265 684.665405,507.306458 678.174561,507.180725 
	C675.886169,507.136383 672.816650,508.033417 672.821106,503.916870 
	C672.826904,498.586639 674.601501,495.823059 678.504700,495.745087 
	C684.163086,495.632080 689.825378,495.709381 695.982178,495.705536 
z"/>
<path fill="#000000" opacity="1.000000" stroke="none" 
	d="
M758.605591,504.496399 
	C762.321533,516.935120 765.902832,528.992615 769.531982,541.211426 
	C765.266968,543.092163 761.459534,542.335388 757.744263,542.181824 
	C755.647095,542.095154 755.212158,540.068787 754.912231,538.529541 
	C754.224976,535.003723 752.117981,534.154541 748.817688,534.210876 
	C744.373901,534.286743 739.877563,534.741150 735.155029,533.709717 
	C736.645508,525.077454 742.402771,522.663940 750.342163,523.364807 
	C749.816284,518.348511 748.440979,514.398315 746.721130,509.550446 
	C740.896362,519.183105 735.645569,528.017212 730.239319,536.755188 
	C726.547729,542.721741 720.765625,544.388855 713.781250,541.773987 
	C713.218079,540.697937 713.839417,539.876404 714.377014,539.039734 
	C722.650024,526.164673 730.904907,513.277832 739.208740,500.422729 
	C741.884094,496.281067 750.926880,493.695587 755.006653,496.136902 
	C757.850464,497.838531 757.439270,501.386963 758.605591,504.496399 
z"/>
<path fill="#000000" opacity="1.000000" stroke="none" 
	d="
M575.365662,495.727600 
	C587.492859,495.703766 599.156616,495.655121 610.819580,495.725525 
	C612.763184,495.737244 615.851135,494.889069 615.481262,498.404419 
	C615.145569,501.594208 616.192505,505.981384 611.248291,506.797699 
	C608.646179,507.227325 605.918945,507.174225 603.272156,506.991455 
	C599.459229,506.728088 597.924438,508.563843 597.387939,512.102722 
	C596.141785,520.322205 594.459167,528.482056 593.434265,536.725891 
	C592.888794,541.113220 591.184509,543.079773 586.733459,542.402893 
	C584.480835,542.060364 582.101868,543.228577 579.281555,541.560913 
	C580.520386,534.289917 581.793396,526.816833 583.068604,519.344177 
	C583.096558,519.180481 583.157104,519.022461 583.189514,518.859253 
	C585.358582,507.939117 585.356689,507.959442 574.432556,506.988831 
	C572.707825,506.835571 570.028625,507.047180 570.491882,504.447968 
	C571.062012,501.249176 569.405396,496.553589 575.365662,495.727600 
z"/>
<path fill="#000000" opacity="1.000000" stroke="none" 
	d="
M478.008972,452.841583 
	C486.741058,450.057251 494.885590,446.817047 503.911957,442.735962 
	C501.953918,450.422821 498.242188,455.994568 494.636475,461.628754 
	C490.725128,467.740479 485.991547,470.977814 477.934113,470.567169 
	C461.996338,469.754913 445.989746,470.305115 430.011719,470.251617 
	C428.389343,470.246216 426.677124,470.693237 423.912567,468.871277 
	C442.363129,463.185059 460.364075,459.221161 478.008972,452.841583 
z"/>
<path fill="#000000" opacity="1.000000" stroke="none" 
	d="
M336.115356,574.952881 
	C332.873352,572.443176 332.924103,569.976868 334.916626,566.959778 
	C338.031128,562.243713 340.823730,557.316223 343.833099,552.528931 
	C344.780975,551.021118 345.580383,549.264221 347.676971,548.725647 
	C349.978943,549.928528 350.338959,552.399780 351.119446,554.491943 
	C353.326599,560.408081 355.162323,566.467590 357.502472,572.327637 
	C359.117523,576.371887 357.518097,578.085266 353.908600,579.359192 
	C347.099731,581.762451 341.562469,579.357971 336.115356,574.952881 
z"/>
<path fill="#000000" opacity="1.000000" stroke="none" 
	d="
M331.602661,553.524780 
	C329.687622,555.780151 329.138092,558.633118 326.153381,560.458679 
	C321.176849,547.525757 320.414185,534.710999 323.616150,520.182739 
	C330.086792,525.071594 336.354614,528.654236 340.038452,535.140686 
	C341.273315,537.315125 340.086548,539.716919 338.867493,541.753418 
	C336.561035,545.606445 334.165100,549.406006 331.602661,553.524780 
z"/>
<path fill="#000000" opacity="1.000000" stroke="none" 
	d="
M362.755676,537.560303 
	C367.873688,536.126099 372.506226,534.323120 378.264160,533.704346 
	C377.771088,546.607178 374.565918,557.874573 367.218811,568.290649 
	C364.336639,566.533997 364.188965,563.837341 363.334167,561.666077 
	C361.386505,556.718628 359.670166,551.679688 357.882690,546.669739 
	C356.261139,542.124878 357.173859,538.821533 362.755676,537.560303 
z"/>
<path fill="#000000" opacity="1.000000" stroke="none" 
	d="
M575.474121,561.584961 
	C576.769836,553.989258 576.769836,553.986023 584.082703,553.961243 
	C585.745789,553.955627 587.417236,553.877197 589.070618,554.009705 
	C595.653198,554.536987 598.645386,559.291382 595.007446,564.680481 
	C592.424866,568.506165 590.797119,571.775696 593.475708,576.060608 
	C588.931519,578.111755 586.644348,576.563293 585.118713,572.898560 
	C584.518433,571.456482 584.126038,569.395691 581.909973,569.683228 
	C580.084595,569.920044 579.862000,571.767517 579.523926,573.141846 
	C578.880005,575.759827 577.708679,577.607483 574.727539,576.732666 
	C571.857666,575.890503 572.990906,573.645691 573.375977,571.754395 
	C574.038330,568.501221 574.712280,565.250305 575.474121,561.584961 
M583.320740,560.322205 
	C581.992004,560.993774 580.804749,562.467285 582.433838,563.145935 
	C584.742310,564.107544 587.831787,564.951721 589.325867,561.115784 
	C587.614319,559.571411 585.785706,560.096863 583.320740,560.322205 
z"/>
<path fill="#000000" opacity="1.000000" stroke="none" 
	d="
M621.135620,573.241150 
	C622.261414,567.957336 623.304749,563.080200 624.329956,558.199219 
	C624.747742,556.209778 625.053833,554.216431 627.736755,554.005249 
	C630.148926,553.815430 631.364014,555.257935 632.414246,557.068054 
	C633.887939,559.607788 634.837585,562.480896 637.115295,564.710815 
	C638.763916,562.477173 638.605469,559.886902 639.243042,557.553162 
	C639.835205,555.385376 640.765137,553.783752 643.303833,554.152893 
	C646.005859,554.545715 645.647156,556.670837 645.305115,558.424133 
	C644.286438,563.644470 643.134888,568.840454 641.936523,574.023193 
	C641.597168,575.490967 640.948914,576.901306 639.082092,577.053101 
	C637.271667,577.200134 635.794800,576.662964 634.861389,575.016235 
	C633.234619,572.146362 631.619324,569.269897 629.690125,565.847961 
	C627.796143,568.778442 627.932617,571.654724 627.114685,574.207642 
	C626.552307,575.962708 625.585999,577.168701 623.562683,577.044312 
	C621.396606,576.911072 620.708618,575.650330 621.135620,573.241150 
z"/>
<path fill="#000000" opacity="1.000000" stroke="none" 
	d="
M607.447632,561.784180 
	C610.662170,563.477417 614.151794,561.818909 617.239441,563.166626 
	C617.302002,564.710754 616.105286,565.350830 605.635742,569.476318 
	C607.755066,572.064880 610.583801,570.619812 612.957458,571.032898 
	C614.579834,571.315186 616.564941,571.148743 616.622742,573.465759 
	C616.682312,575.856812 615.276428,577.092163 612.864746,577.122009 
	C612.698730,577.124023 612.532776,577.138489 612.366943,577.136047 
	C594.094116,576.867371 597.125671,579.568298 600.357361,563.350647 
	C602.437561,552.911438 600.797852,553.846069 613.142151,553.970886 
	C615.565552,553.995300 619.758118,552.273499 619.942932,556.557861 
	C620.140930,561.146118 615.877991,559.626343 613.144287,560.010071 
	C611.166504,560.287598 608.746094,558.931580 607.447632,561.784180 
z"/>
<path fill="#000000" opacity="1.000000" stroke="none" 
	d="
M448.634949,568.222900 
	C445.352814,568.868469 441.935211,566.937866 439.353424,570.141235 
	C441.403076,572.539734 443.802124,571.212402 445.937775,571.318359 
	C447.813202,571.411499 450.414337,570.504333 450.626251,573.483215 
	C450.846680,576.581726 448.556152,577.226807 445.920441,577.178650 
	C442.759430,577.120972 439.591522,577.066772 436.435486,577.208801 
	C433.095581,577.358948 431.896301,576.150513 432.721527,572.751526 
	C433.896118,567.913513 434.848602,563.018982 435.791443,558.128357 
	C436.309204,555.442749 437.701416,553.993164 440.519135,554.039551 
	C443.680328,554.091614 446.848724,553.985474 450.001373,554.167053 
	C451.700806,554.264954 454.055939,553.988953 454.040649,556.708374 
	C454.024353,559.604980 451.949768,560.052795 449.538513,560.090210 
	C446.983429,560.129761 444.303345,559.495667 441.389679,561.103760 
	C444.541199,564.114746 448.442566,561.514771 451.625916,563.548645 
	C452.197693,565.710022 451.809753,567.488403 448.634949,568.222900 
z"/>
<path fill="#000000" opacity="1.000000" stroke="none" 
	d="
M553.112366,560.117065 
	C551.100098,560.241333 549.399780,559.882812 547.611633,561.233093 
	C549.857727,563.507629 552.426331,562.365662 554.651794,562.683167 
	C556.100159,562.889832 557.910583,562.583740 558.009827,564.735779 
	C558.109924,566.905640 556.934937,568.056580 554.714294,568.288330 
	C551.743591,568.598206 548.518127,567.515747 545.211731,569.626892 
	C548.777344,573.385559 553.381531,570.096313 556.515747,572.288025 
	C557.208374,573.897827 556.675598,575.118103 555.743713,576.117798 
	C554.484070,577.469177 541.064209,577.697571 539.664490,576.459045 
	C538.300171,575.251892 538.756958,573.709412 539.036621,572.268066 
	C539.924255,567.694275 540.976685,563.150391 541.771362,558.561340 
	C542.327942,555.346680 544.146851,554.002380 547.266785,554.021484 
	C550.266235,554.039856 553.267822,553.933289 556.265076,554.012268 
	C558.006348,554.058105 560.257507,553.643616 560.307922,556.444031 
	C560.351929,558.894653 558.935669,560.065186 556.535645,560.103027 
	C555.536011,560.118835 554.536011,560.111694 553.112366,560.117065 
z"/>
<path fill="#000000" opacity="1.000000" stroke="none" 
	d="
M674.914062,573.486694 
	C670.773743,577.079773 670.773743,577.079773 666.657837,575.910156 
	C667.317810,572.019714 670.206177,569.339355 672.061951,566.140137 
	C673.810120,563.126526 675.884888,560.301514 677.614685,557.278259 
	C678.938416,554.964905 680.752625,553.897034 683.336609,554.285767 
	C685.867004,554.666382 686.110901,556.801514 686.538269,558.763306 
	C687.561401,563.459961 688.600525,568.153076 689.634521,572.847412 
	C689.949951,574.279480 690.687561,575.859558 688.759949,576.717651 
	C687.266907,577.382324 685.360840,577.238037 684.610107,576.022705 
	C682.214478,572.144104 678.680908,573.184570 674.914062,573.486694 
z"/>
<path fill="#000000" opacity="1.000000" stroke="none" 
	d="
M456.969055,566.157104 
	C457.591827,563.146423 458.209412,560.562927 458.623840,557.947327 
	C458.985565,555.664551 459.950958,554.118591 462.468353,554.391602 
	C465.575531,554.728699 464.793304,556.912354 464.493927,558.908691 
	C464.353119,559.847717 464.550018,560.837402 464.599579,561.929810 
	C469.076355,563.205261 472.646057,563.427185 473.243988,557.469360 
	C473.466339,555.253845 474.772614,553.684448 477.327606,554.346802 
	C479.848846,555.000549 479.366943,557.052429 479.026184,558.830139 
	C478.152832,563.386353 477.214478,567.931152 476.223145,572.463257 
	C475.729980,574.718018 475.401154,577.462708 472.080627,576.869202 
	C468.486023,576.226746 469.951965,573.433411 470.079773,571.275269 
	C470.118042,570.629639 470.190643,569.986023 470.243317,569.388916 
	C464.205139,567.094666 462.901825,567.621155 461.432861,573.467468 
	C460.799957,575.986206 459.750977,577.511841 457.051605,576.881836 
	C454.283020,576.235657 455.399689,574.105408 455.686127,572.413574 
	C456.017670,570.454834 456.473663,568.517151 456.969055,566.157104 
z"/>
<path fill="#000000" opacity="1.000000" stroke="none" 
	d="
M493.857269,564.190552 
	C496.460663,555.110046 501.263458,552.180725 509.870697,554.058167 
	C512.070129,554.537903 514.049561,555.443726 515.023621,557.584412 
	C515.793518,559.276428 516.365906,561.354675 514.501831,562.572754 
	C512.796265,563.687256 510.535339,564.019409 509.232697,561.847778 
	C507.176514,558.420105 504.634918,559.026794 502.095276,560.838745 
	C499.998230,562.334961 498.527191,569.148499 499.920349,570.531128 
	C501.938385,572.533813 504.337952,571.855347 506.311859,570.500183 
	C508.501495,568.996765 510.548798,567.947083 513.336792,569.440308 
	C513.579041,573.175781 511.273285,575.080566 508.262878,576.419922 
	C506.077911,577.392029 503.710785,577.317200 501.381317,577.261902 
	C494.207916,577.091492 491.901245,574.140137 493.348938,567.053955 
	C493.515228,566.240234 493.636322,565.417297 493.857269,564.190552 
z"/>
<path fill="#000000" opacity="1.000000" stroke="none" 
	d="
M329.249420,506.564148 
	C333.171356,499.720276 337.635376,493.961884 345.014587,490.785492 
	C345.541168,494.164337 341.873657,514.961914 340.380676,518.204102 
	C334.618164,516.542542 329.268250,511.189484 329.249420,506.564148 
z"/>
<path fill="#000000" opacity="1.000000" stroke="none" 
	d="
M426.738037,555.640625 
	C428.653809,554.407410 430.357880,554.127502 432.953430,555.508057 
	C428.748230,562.298401 424.805908,569.144653 420.345093,575.634521 
	C418.521759,578.287231 414.518829,577.329773 413.765839,574.200745 
	C412.299255,568.106384 410.940857,561.956299 410.480164,554.823425 
	C420.437866,554.919922 415.262299,564.171021 419.192413,567.495789 
	C421.587341,563.697632 424.041748,559.805115 426.738037,555.640625 
z"/>
<path fill="#000000" opacity="1.000000" stroke="none" 
	d="
M361.879089,526.212646 
	C358.817535,526.482971 356.947662,525.725220 356.401794,522.783997 
	C355.884125,519.994568 355.890411,517.434937 358.628815,515.781311 
	C360.608307,514.585815 362.638153,513.449341 364.732056,512.471863 
	C372.840424,508.686829 373.089233,508.964996 375.610870,517.715637 
	C376.615906,521.203491 375.474640,522.643311 372.355255,523.440491 
	C368.991821,524.300110 365.654175,525.260620 361.879089,526.212646 
z"/>
<path fill="#000000" opacity="1.000000" stroke="none" 
	d="
M658.072754,553.905273 
	C661.040588,553.927368 663.539612,553.903320 666.034912,553.988098 
	C667.538452,554.039062 669.222595,554.092224 669.294922,556.200439 
	C669.364563,558.229675 668.649597,560.122620 666.345947,560.027588 
	C662.261169,559.859253 661.330383,562.285217 660.858215,565.579407 
	C660.458130,568.370422 659.746399,571.116821 659.170410,573.882568 
	C658.664490,576.311951 657.105652,577.270691 654.779419,576.705017 
	C652.427551,576.133118 653.071594,574.370056 653.338867,572.678650 
	C653.953369,568.790833 655.346558,565.000671 655.084839,560.733215 
	C654.173645,560.535828 653.398315,560.301941 652.606445,560.209534 
	C650.800964,559.998901 649.288208,559.563049 649.496765,557.242554 
	C649.696289,555.022339 650.953613,553.994080 653.107117,553.948730 
	C654.605164,553.917114 656.103882,553.918274 658.072754,553.905273 
z"/>
<path fill="#000000" opacity="1.000000" stroke="none" 
	d="
M702.325928,564.131165 
	C702.627136,566.910767 698.940186,570.208984 703.641418,571.513733 
	C706.113342,572.199768 708.890564,571.228210 711.465881,572.200928 
	C712.049988,575.560242 710.813843,577.120422 707.598999,577.117126 
	C704.286438,577.113708 700.973694,577.127014 697.661377,577.163330 
	C694.646729,577.196411 693.438232,575.949402 694.161560,572.837036 
	C695.284058,568.007141 696.234619,563.136719 697.216858,558.275085 
	C697.724304,555.763733 698.643494,553.696411 701.749878,554.428833 
	C704.855713,555.161133 703.300598,557.594177 703.232788,559.346375 
	C703.176025,560.812256 702.674988,562.260986 702.325928,564.131165 
z"/>
<path fill="#000000" opacity="1.000000" stroke="none" 
	d="
M534.787109,573.009338 
	C534.936096,576.204285 533.327026,577.196838 530.787170,577.197021 
	C527.471680,577.197266 524.154541,577.159607 520.841248,577.251648 
	C518.157532,577.326172 517.214417,576.049683 517.713562,573.555237 
	C518.817627,568.038147 519.920471,562.520142 521.113342,557.021973 
	C521.574158,554.897949 523.034668,553.982666 525.193115,554.464783 
	C527.469177,554.973267 527.305969,556.724792 526.985229,558.404724 
	C526.214722,562.440002 525.365662,566.460266 524.549805,570.478821 
	C527.730286,573.003784 531.698730,570.375061 534.787109,573.009338 
z"/>
<path fill="#000000" opacity="1.000000" stroke="none" 
	d="
M488.035553,570.740601 
	C487.531921,572.580505 487.316284,574.106567 486.674622,575.425415 
	C485.901184,577.015015 484.297668,577.118225 482.759186,576.719604 
	C481.101959,576.290344 480.931458,575.065613 481.251709,573.577209 
	C482.439178,568.058838 483.620178,562.538452 484.725281,557.003235 
	C485.186920,554.691101 486.659607,554.010864 488.721191,554.325562 
	C491.060181,554.682556 490.917572,556.307983 490.537079,558.115112 
	C489.681854,562.176941 488.929199,566.260315 488.035553,570.740601 
z"/>
<path fill="#000000" opacity="1.000000" stroke="none" 
	d="
M354.530640,532.479736 
	C354.623016,533.179077 354.687195,533.511597 354.655029,533.834595 
	C354.356812,536.828613 354.113678,539.986633 350.580841,540.993103 
	C348.169403,541.680054 346.860931,539.883240 346.226807,537.932434 
	C345.099457,534.464294 344.987732,530.697021 348.105469,528.397705 
	C352.293335,525.309265 353.312836,529.156738 354.530640,532.479736 
z"/>
<path fill="#000000" opacity="1.000000" stroke="none" 
	d="
M334.977234,559.895020 
	C333.036865,562.278137 332.195068,565.136108 329.513031,566.648560 
	C328.910248,563.060547 335.069000,553.168823 339.939545,550.155640 
	C339.243378,554.149902 336.812714,556.691528 334.977234,559.895020 
z"/>
<path fill="#000000" opacity="1.000000" stroke="none" 
	d="
M360.165771,562.990051 
	C361.157349,566.724304 363.541199,569.767578 362.182129,573.690735 
	C358.708527,567.985229 356.903229,561.672852 354.518616,554.190308 
	C358.813263,556.601074 358.582764,560.122559 360.165771,562.990051 
z"/>
<path fill="#000000" opacity="1.000000" stroke="none" 
	d="
M326.175354,516.995239 
	C325.129791,515.129150 325.598755,513.618103 327.376251,514.563538 
	C331.198273,516.596436 334.738251,519.201172 336.485748,523.539551 
	C332.164764,522.862915 329.592102,519.560669 326.175354,516.995239 
z"/>
<path fill="#000000" opacity="1.000000" stroke="none" 
	d="
M339.648560,530.951355 
	C338.730438,528.759766 339.013824,527.084106 340.792908,525.988770 
	C341.897156,525.308899 343.036316,525.684265 343.739227,526.784119 
	C344.671204,528.242554 343.951202,529.604919 343.246643,530.888489 
	C342.309357,532.596008 341.131409,532.735779 339.648560,530.951355 
z"/>
<path fill="#000000" opacity="1.000000" stroke="none" 
	d="
M341.327026,543.001709 
	C342.491486,540.537231 344.208252,539.996582 345.666748,541.808838 
	C346.960327,543.416138 346.316803,545.694763 344.493134,546.411133 
	C342.146423,547.332947 341.515869,545.285950 341.327026,543.001709 
z"/>
<path fill="#000000" opacity="1.000000" stroke="none" 
	d="
M351.202087,543.721985 
	C354.745178,542.110107 354.950165,544.647156 355.314392,546.698242 
	C355.538116,547.958130 354.775269,549.245850 353.436829,548.932312 
	C350.876221,548.332397 350.388062,546.332520 351.202087,543.721985 
z"/>
<path fill="#000000" opacity="1.000000" stroke="none" 
	d="
M360.706909,534.367920 
	C358.884766,535.835266 357.430145,536.111694 356.846649,533.735962 
	C356.473297,532.215881 356.758026,530.406006 358.571350,530.351257 
	C360.812988,530.283630 361.595001,531.884277 360.706909,534.367920 
z"/>
</svg>